<?xml version="1.0" encoding="UTF-8"?>
<svg version="1.1" xmlns="http://www.w3.org/2000/svg" width="32" height="32">
<path d="M0 0 C2.7682485 1.81368005 2.97690674 2.89293126 3.6875 6.1875 C3.790625 7.115625 3.89375 8.04375 4 9 C4.66 9 5.32 9 6 9 C8.49978621 13.55843368 8.37300319 18.07930402 7 23 C5.94921875 24.75 5.94921875 24.75 4 26 C1.23881175 26.29834873 -1.24548016 26.41911153 -4 26.375 C-5.08667969 26.39240234 -5.08667969 26.39240234 -6.1953125 26.41015625 C-9.15723617 26.39376184 -11.41487226 26.37523222 -13.94921875 24.75 C-15.94340543 21.42882665 -16.02667566 17.80795097 -16 14 C-15.0625 10.9375 -15.0625 10.9375 -14 9 C-13.34 9 -12.68 9 -12 9 C-11.8453125 7.6078125 -11.8453125 7.6078125 -11.6875 6.1875 C-10.98597228 2.93496238 -10.57549567 1.95737671 -8 0 C-5.06317146 -1.46841427 -3.13175678 -0.76696084 0 0 Z M-7.25 3.8125 C-9.20823168 5.79339513 -9.20823168 5.79339513 -9 8 C-5.7 8 -2.4 8 1 8 C-0.05474665 4.30539124 -0.05474665 4.30539124 -2.875 1.9375 C-5.20540243 1.79188149 -5.20540243 1.79188149 -7.25 3.8125 Z M-11 11 C-13.29982545 14.99165106 -12.93492352 17.49536847 -12 22 C-10.86298403 23.36532549 -10.86298403 23.36532549 -7.83984375 23.09765625 C-6.55207031 23.08605469 -5.26429687 23.07445312 -3.9375 23.0625 C-2.64714844 23.05347656 -1.35679688 23.04445313 -0.02734375 23.03515625 C0.97167969 23.02355469 1.97070312 23.01195312 3 23 C5.29982545 19.00834894 4.93492352 16.50463153 4 12 C2.86298403 10.63467451 2.86298403 10.63467451 -0.16015625 10.90234375 C-1.44792969 10.91394531 -2.73570313 10.92554688 -4.0625 10.9375 C-5.35285156 10.94652344 -6.64320312 10.95554687 -7.97265625 10.96484375 C-8.97167969 10.97644531 -9.97070312 10.98804688 -11 11 Z " fill="#000000" transform="translate(20,3)"/>
<path d="M0 0 C0.66 0 1.32 0 2 0 C2 0.66 2 1.32 2 2 C1.34 2 0.68 2 0 2 C0 1.34 0 0.68 0 0 Z " fill="#000000" transform="translate(19,19)"/>
<path d="M0 0 C0.66 0 1.32 0 2 0 C2 0.66 2 1.32 2 2 C1.34 2 0.68 2 0 2 C0 1.34 0 0.68 0 0 Z " fill="#000000" transform="translate(15,19)"/>
<path d="M0 0 C0.66 0 1.32 0 2 0 C2 0.66 2 1.32 2 2 C1.34 2 0.68 2 0 2 C0 1.34 0 0.68 0 0 Z " fill="#000000" transform="translate(11,19)"/>
</svg>
