<?xml version="1.0" encoding="UTF-8"?>
<svg version="1.1" xmlns="http://www.w3.org/2000/svg" width="24" height="24">
<path d="M0 0 C3.43605181 1.48229451 5.68701591 3.4295174 8.328125 6.0625 C9.52695312 7.25746094 9.52695312 7.25746094 10.75 8.4765625 C11.575 9.30929687 12.4 10.14203125 13.25 11 C14.09046875 11.83273437 14.9309375 12.66546875 15.796875 13.5234375 C16.5909375 14.32007813 17.385 15.11671875 18.203125 15.9375 C18.93176758 16.66839844 19.66041016 17.39929688 20.41113281 18.15234375 C22 20 22 20 22 22 C21.21625 21.67 20.4325 21.34 19.625 21 C16.28849154 20.07958387 14.36776501 19.99927144 11 20.1875 C7.4373312 20.25735625 5.30686122 20.05294888 2.4375 17.875 C-0.2785269 14.67148109 -1.08709664 13.18063874 -1 9 C-0.00585407 7.32983484 0.9935725 5.66279327 2 4 C1.30859649 1.69712207 1.30859649 1.69712207 0 0 Z M4 7 C3.34 7.66 2.68 8.32 2 9 C1.85908518 11.47326954 1.85908518 11.47326954 3 14 C5.61162983 16.51894239 5.61162983 16.51894239 9 18 C12.28642465 17.87134188 12.28642465 17.87134188 15 17 C15 16.67 15 16.34 15 16 C13.865625 15.855625 12.73125 15.71125 11.5625 15.5625 C8 15 8 15 7 14 C6.63239269 11.67182036 6.29758419 9.3381615 6 7 C5.34 7 4.68 7 4 7 Z M8 10 C8.66 11.32 9.32 12.64 10 14 C10.66 13.67 11.32 13.34 12 13 C10.68 12.01 9.36 11.02 8 10 Z " fill="#000000" transform="translate(1,1)"/>
<path d="M0 0 C4.65553289 -0.46555329 8.63399746 -0.82636291 12.5 2.125 C15.24746387 5.28458346 16 6.84435727 16 11 C15.01 12.485 15.01 12.485 14 14 C13.01 14 12.02 14 11 14 C11.33 11.69 11.66 9.38 12 7 C7.97832683 4.03162219 4.99911924 2.47610659 0 2 C0 1.34 0 0.68 0 0 Z " fill="#000000" transform="translate(8,3)"/>
<path d="M0 0 C2.475 0.495 2.475 0.495 5 1 C5.33 2.65 5.66 4.3 6 6 C4 6 4 6 1.875 4.125 C0 2 0 2 0 0 Z " fill="#000000" transform="translate(11,7)"/>
</svg>
