<?xml version="1.0" encoding="UTF-8"?>
<svg version="1.1" xmlns="http://www.w3.org/2000/svg" width="24" height="24">
<path d="M0 0 C3.73611127 1.73009544 5.63677037 4.10148459 7.1875 7.9375 C6.91383063 12.40743311 5.13931157 13.86068843 2 17 C-1.73452163 18.86726081 -5.93349247 18.54801327 -10 18 C-13.73611127 16.26990456 -15.63677037 13.89851541 -17.1875 10.0625 C-16.91383063 5.59256689 -15.13931157 4.13931157 -12 1 C-8.26547837 -0.86726081 -4.06650753 -0.54801327 0 0 Z M-12 5 C-12.66 5.66 -13.32 6.32 -14 7 C-14.14091482 9.47326954 -14.14091482 9.47326954 -13 12 C-9.9032871 14.73663001 -8.11387401 16 -3.9375 16 C-0.62884965 14.87365094 1.43083526 13.34247373 4 11 C3.96219702 8.62766389 3.96219702 8.62766389 3 6 C-2.56919661 1.42088279 -6.03992867 0.92205646 -12 5 Z " fill="#000000" transform="translate(17,3)"/>
<path d="M0 0 C0.721875 0.00257813 1.44375 0.00515625 2.1875 0.0078125 C2.909375 0.00523437 3.63125 0.00265625 4.375 0 C6.1875 0.1328125 6.1875 0.1328125 7.1875 1.1328125 C7.42478814 7.65823623 7.42478814 7.65823623 6.1875 10.1328125 C0.03515625 10.23046875 0.03515625 10.23046875 -1.8125 10.1328125 C-2.8125 9.1328125 -2.8125 9.1328125 -2.9453125 7.3203125 C-2.94273437 6.5984375 -2.94015625 5.8765625 -2.9375 5.1328125 C-2.94007813 4.4109375 -2.94265625 3.6890625 -2.9453125 2.9453125 C-2.7645617 0.47859567 -2.46671683 0.1807508 0 0 Z M0.1875 2.1328125 C-0.1425 3.4528125 -0.4725 4.7728125 -0.8125 6.1328125 C1.1675 7.1228125 1.1675 7.1228125 3.1875 8.1328125 C3.8475 6.8128125 4.5075 5.4928125 5.1875 4.1328125 C4.5275 3.4728125 3.8675 2.8128125 3.1875 2.1328125 C2.1975 2.1328125 1.2075 2.1328125 0.1875 2.1328125 Z " fill="#000000" transform="translate(9.8125,6.8671875)"/>
</svg>
